<svg xmlns="http://www.w3.org/2000/svg" width="448" height="448" viewBox="0 0 448 448">
<rect width="448" height="448" fill="#0d1320"/>
<rect x="0" y="0" width="28" height="28" fill="#d2ac74" stroke="rgba(18,24,38,0.15)"/>
<rect x="28" y="0" width="28" height="28" fill="#d2ac74" stroke="rgba(18,24,38,0.15)"/>
<rect x="56" y="0" width="28" height="28" fill="#d2ac74" stroke="rgba(18,24,38,0.15)"/>
<rect x="84" y="0" width="28" height="28" fill="#d2ac74" stroke="rgba(18,24,38,0.15)"/>
<rect x="112" y="0" width="28" height="28" fill="#d2ac74" stroke="rgba(18,24,38,0.15)"/>
<rect x="140" y="0" width="28" height="28" fill="#d2ac74" stroke="rgba(18,24,38,0.15)"/>
<rect x="168" y="0" width="28" height="28" fill="#d2ac74" stroke="rgba(18,24,38,0.15)"/>
<rect x="196" y="0" width="28" height="28" fill="#d2ac74" stroke="rgba(18,24,38,0.15)"/>
<rect x="224" y="0" width="28" height="28" fill="#d2ac74" stroke="rgba(18,24,38,0.15)"/>
<rect x="252" y="0" width="28" height="28" fill="#d2ac74" stroke="rgba(18,24,38,0.15)"/>
<rect x="280" y="0" width="28" height="28" fill="#d2ac74" stroke="rgba(18,24,38,0.15)"/>
<rect x="308" y="0" width="28" height="28" fill="#d2ac74" stroke="rgba(18,24,38,0.15)"/>
<rect x="336" y="0" width="28" height="28" fill="#d2ac74" stroke="rgba(18,24,38,0.15)"/>
<rect x="364" y="0" width="28" height="28" fill="#d2ac74" stroke="rgba(18,24,38,0.15)"/>
<rect x="392" y="0" width="28" height="28" fill="#d2ac74" stroke="rgba(18,24,38,0.15)"/>
<rect x="420" y="0" width="28" height="28" fill="#d2ac74" stroke="rgba(18,24,38,0.15)"/>
<rect x="0" y="28" width="28" height="28" fill="#d2ac74" stroke="rgba(18,24,38,0.15)"/>
<rect x="28" y="28" width="28" height="28" fill="#d2ac74" stroke="rgba(18,24,38,0.15)"/>
<rect x="56" y="28" width="28" height="28" fill="#d2ac74" stroke="rgba(18,24,38,0.15)"/>
<rect x="84" y="28" width="28" height="28" fill="#d2ac74" stroke="rgba(18,24,38,0.15)"/>
<rect x="112" y="28" width="28" height="28" fill="#d2ac74" stroke="rgba(18,24,38,0.15)"/>
<rect x="140" y="28" width="28" height="28" fill="#d2ac74" stroke="rgba(18,24,38,0.15)"/>
<rect x="168" y="28" width="28" height="28" fill="#d2ac74" stroke="rgba(18,24,38,0.15)"/>
<rect x="196" y="28" width="28" height="28" fill="#d2ac74" stroke="rgba(18,24,38,0.15)"/>
<rect x="224" y="28" width="28" height="28" fill="#d2ac74" stroke="rgba(18,24,38,0.15)"/>
<rect x="252" y="28" width="28" height="28" fill="#d2ac74" stroke="rgba(18,24,38,0.15)"/>
<rect x="280" y="28" width="28" height="28" fill="#d2ac74" stroke="rgba(18,24,38,0.15)"/>
<rect x="308" y="28" width="28" height="28" fill="#d2ac74" stroke="rgba(18,24,38,0.15)"/>
<rect x="336" y="28" width="28" height="28" fill="#d2ac74" stroke="rgba(18,24,38,0.15)"/>
<rect x="364" y="28" width="28" height="28" fill="#d2ac74" stroke="rgba(18,24,38,0.15)"/>
<rect x="392" y="28" width="28" height="28" fill="#d2ac74" stroke="rgba(18,24,38,0.15)"/>
<rect x="420" y="28" width="28" height="28" fill="#d2ac74" stroke="rgba(18,24,38,0.15)"/>
<rect x="0" y="56" width="28" height="28" fill="#d2ac74" stroke="rgba(18,24,38,0.15)"/>
<rect x="28" y="56" width="28" height="28" fill="#d2ac74" stroke="rgba(18,24,38,0.15)"/>
<rect x="56" y="56" width="28" height="28" fill="#d2ac74" stroke="rgba(18,24,38,0.15)"/>
<rect x="84" y="56" width="28" height="28" fill="#d2ac74" stroke="rgba(18,24,38,0.15)"/>
<rect x="112" y="56" width="28" height="28" fill="#d2ac74" stroke="rgba(18,24,38,0.15)"/>
<rect x="140" y="56" width="28" height="28" fill="#d2ac74" stroke="rgba(18,24,38,0.15)"/>
<rect x="168" y="56" width="28" height="28" fill="#d2ac74" stroke="rgba(18,24,38,0.15)"/>
<rect x="196" y="56" width="28" height="28" fill="#d2ac74" stroke="rgba(18,24,38,0.15)"/>
<rect x="224" y="56" width="28" height="28" fill="#d2ac74" stroke="rgba(18,24,38,0.15)"/>
<rect x="252" y="56" width="28" height="28" fill="#d2ac74" stroke="rgba(18,24,38,0.15)"/>
<rect x="280" y="56" width="28" height="28" fill="#d2ac74" stroke="rgba(18,24,38,0.15)"/>
<rect x="308" y="56" width="28" height="28" fill="#d2ac74" stroke="rgba(18,24,38,0.15)"/>
<rect x="336" y="56" width="28" height="28" fill="#d2ac74" stroke="rgba(18,24,38,0.15)"/>
<rect x="364" y="56" width="28" height="28" fill="#d2ac74" stroke="rgba(18,24,38,0.15)"/>
<rect x="392" y="56" width="28" height="28" fill="#d2ac74" stroke="rgba(18,24,38,0.15)"/>
<rect x="420" y="56" width="28" height="28" fill="#d2ac74" stroke="rgba(18,24,38,0.15)"/>
<rect x="0" y="84" width="28" height="28" fill="#d2ac74" stroke="rgba(18,24,38,0.15)"/>
<rect x="28" y="84" width="28" height="28" fill="#d2ac74" stroke="rgba(18,24,38,0.15)"/>
<rect x="56" y="84" width="28" height="28" fill="#d2ac74" stroke="rgba(18,24,38,0.15)"/>
<rect x="84" y="84" width="28" height="28" fill="#d2ac74" stroke="rgba(18,24,38,0.15)"/>
<rect x="112" y="84" width="28" height="28" fill="#d2ac74" stroke="rgba(18,24,38,0.15)"/>
<rect x="140" y="84" width="28" height="28" fill="#d2ac74" stroke="rgba(18,24,38,0.15)"/>
<rect x="168" y="84" width="28" height="28" fill="#d2ac74" stroke="rgba(18,24,38,0.15)"/>
<rect x="196" y="84" width="28" height="28" fill="#d2ac74" stroke="rgba(18,24,38,0.15)"/>
<rect x="224" y="84" width="28" height="28" fill="#d2ac74" stroke="rgba(18,24,38,0.15)"/>
<rect x="252" y="84" width="28" height="28" fill="#d2ac74" stroke="rgba(18,24,38,0.15)"/>
<rect x="280" y="84" width="28" height="28" fill="#d2ac74" stroke="rgba(18,24,38,0.15)"/>
<rect x="308" y="84" width="28" height="28" fill="#d2ac74" stroke="rgba(18,24,38,0.15)"/>
<rect x="336" y="84" width="28" height="28" fill="#d2ac74" stroke="rgba(18,24,38,0.15)"/>
<rect x="364" y="84" width="28" height="28" fill="#d2ac74" stroke="rgba(18,24,38,0.15)"/>
<rect x="392" y="84" width="28" height="28" fill="#d2ac74" stroke="rgba(18,24,38,0.15)"/>
<rect x="420" y="84" width="28" height="28" fill="#d2ac74" stroke="rgba(18,24,38,0.15)"/>
<rect x="0" y="112" width="28" height="28" fill="#d2ac74" stroke="rgba(18,24,38,0.15)"/>
<rect x="28" y="112" width="28" height="28" fill="#d2ac74" stroke="rgba(18,24,38,0.15)"/>
<rect x="56" y="112" width="28" height="28" fill="#d2ac74" stroke="rgba(18,24,38,0.15)"/>
<rect x="84" y="112" width="28" height="28" fill="#d2ac74" stroke="rgba(18,24,38,0.15)"/>
<rect x="112" y="112" width="28" height="28" fill="#d2ac74" stroke="rgba(18,24,38,0.15)"/>
<rect x="140" y="112" width="28" height="28" fill="#d2ac74" stroke="rgba(18,24,38,0.15)"/>
<rect x="168" y="112" width="28" height="28" fill="#d2ac74" stroke="rgba(18,24,38,0.15)"/>
<rect x="196" y="112" width="28" height="28" fill="#d2ac74" stroke="rgba(18,24,38,0.15)"/>
<rect x="224" y="112" width="28" height="28" fill="#d2ac74" stroke="rgba(18,24,38,0.15)"/>
<rect x="252" y="112" width="28" height="28" fill="#d2ac74" stroke="rgba(18,24,38,0.15)"/>
<rect x="280" y="112" width="28" height="28" fill="#d2ac74" stroke="rgba(18,24,38,0.15)"/>
<rect x="308" y="112" width="28" height="28" fill="#d2ac74" stroke="rgba(18,24,38,0.15)"/>
<rect x="336" y="112" width="28" height="28" fill="#d2ac74" stroke="rgba(18,24,38,0.15)"/>
<rect x="364" y="112" width="28" height="28" fill="#d2ac74" stroke="rgba(18,24,38,0.15)"/>
<rect x="392" y="112" width="28" height="28" fill="#d2ac74" stroke="rgba(18,24,38,0.15)"/>
<rect x="420" y="112" width="28" height="28" fill="#d2ac74" stroke="rgba(18,24,38,0.15)"/>
<rect x="0" y="140" width="28" height="28" fill="#d2ac74" stroke="rgba(18,24,38,0.15)"/>
<rect x="28" y="140" width="28" height="28" fill="#a47c53" stroke="rgba(18,24,38,0.15)"/>
<rect x="56" y="140" width="28" height="28" fill="#a47c53" stroke="rgba(18,24,38,0.15)"/>
<rect x="84" y="140" width="28" height="28" fill="#a47c53" stroke="rgba(18,24,38,0.15)"/>
<rect x="112" y="140" width="28" height="28" fill="#a47c53" stroke="rgba(18,24,38,0.15)"/>
<rect x="140" y="140" width="28" height="28" fill="#a47c53" stroke="rgba(18,24,38,0.15)"/>
<rect x="168" y="140" width="28" height="28" fill="#a47c53" stroke="rgba(18,24,38,0.15)"/>
<rect x="196" y="140" width="28" height="28" fill="#a47c53" stroke="rgba(18,24,38,0.15)"/>
<rect x="224" y="140" width="28" height="28" fill="#a47c53" stroke="rgba(18,24,38,0.15)"/>
<rect x="252" y="140" width="28" height="28" fill="#a47c53" stroke="rgba(18,24,38,0.15)"/>
<rect x="280" y="140" width="28" height="28" fill="#a47c53" stroke="rgba(18,24,38,0.15)"/>
<rect x="308" y="140" width="28" height="28" fill="#a47c53" stroke="rgba(18,24,38,0.15)"/>
<rect x="336" y="140" width="28" height="28" fill="#a47c53" stroke="rgba(18,24,38,0.15)"/>
<rect x="364" y="140" width="28" height="28" fill="#a47c53" stroke="rgba(18,24,38,0.15)"/>
<rect x="392" y="140" width="28" height="28" fill="#d2ac74" stroke="rgba(18,24,38,0.15)"/>
<rect x="420" y="140" width="28" height="28" fill="#d2ac74" stroke="rgba(18,24,38,0.15)"/>
<rect x="0" y="168" width="28" height="28" fill="#d2ac74" stroke="rgba(18,24,38,0.15)"/>
<rect x="28" y="168" width="28" height="28" fill="#a47c53" stroke="rgba(18,24,38,0.15)"/>
<rect x="56" y="168" width="28" height="28" fill="#a47c53" stroke="rgba(18,24,38,0.15)"/>
<rect x="84" y="168" width="28" height="28" fill="#a47c53" stroke="rgba(18,24,38,0.15)"/>
<rect x="112" y="168" width="28" height="28" fill="#a47c53" stroke="rgba(18,24,38,0.15)"/>
<rect x="140" y="168" width="28" height="28" fill="#a47c53" stroke="rgba(18,24,38,0.15)"/>
<rect x="168" y="168" width="28" height="28" fill="#d2ac74" stroke="rgba(18,24,38,0.15)"/>
<rect x="196" y="168" width="28" height="28" fill="#d2ac74" stroke="rgba(18,24,38,0.15)"/>
<rect x="224" y="168" width="28" height="28" fill="#d2ac74" stroke="rgba(18,24,38,0.15)"/>
<rect x="252" y="168" width="28" height="28" fill="#d2ac74" stroke="rgba(18,24,38,0.15)"/>
<rect x="280" y="168" width="28" height="28" fill="#a47c53" stroke="rgba(18,24,38,0.15)"/>
<rect x="308" y="168" width="28" height="28" fill="#a47c53" stroke="rgba(18,24,38,0.15)"/>
<rect x="336" y="168" width="28" height="28" fill="#a47c53" stroke="rgba(18,24,38,0.15)"/>
<rect x="364" y="168" width="28" height="28" fill="#a47c53" stroke="rgba(18,24,38,0.15)"/>
<rect x="392" y="168" width="28" height="28" fill="#d2ac74" stroke="rgba(18,24,38,0.15)"/>
<rect x="420" y="168" width="28" height="28" fill="#d2ac74" stroke="rgba(18,24,38,0.15)"/>
<rect x="0" y="196" width="28" height="28" fill="#d2ac74" stroke="rgba(18,24,38,0.15)"/>
<rect x="28" y="196" width="28" height="28" fill="#d2ac74" stroke="rgba(18,24,38,0.15)"/>
<rect x="56" y="196" width="28" height="28" fill="#d2ac74" stroke="rgba(18,24,38,0.15)"/>
<rect x="84" y="196" width="28" height="28" fill="#a47c53" stroke="rgba(18,24,38,0.15)"/>
<rect x="112" y="196" width="28" height="28" fill="#a47c53" stroke="rgba(18,24,38,0.15)"/>
<rect x="140" y="196" width="28" height="28" fill="#a47c53" stroke="rgba(18,24,38,0.15)"/>
<rect x="168" y="196" width="28" height="28" fill="#d2ac74" stroke="rgba(18,24,38,0.15)"/>
<rect x="196" y="196" width="28" height="28" fill="#d2ac74" stroke="rgba(18,24,38,0.15)"/>
<rect x="224" y="196" width="28" height="28" fill="#d2ac74" stroke="rgba(18,24,38,0.15)"/>
<rect x="252" y="196" width="28" height="28" fill="#d2ac74" stroke="rgba(18,24,38,0.15)"/>
<rect x="280" y="196" width="28" height="28" fill="#a47c53" stroke="rgba(18,24,38,0.15)"/>
<rect x="308" y="196" width="28" height="28" fill="#a47c53" stroke="rgba(18,24,38,0.15)"/>
<rect x="336" y="196" width="28" height="28" fill="#a47c53" stroke="rgba(18,24,38,0.15)"/>
<rect x="364" y="196" width="28" height="28" fill="#d2ac74" stroke="rgba(18,24,38,0.15)"/>
<rect x="392" y="196" width="28" height="28" fill="#d2ac74" stroke="rgba(18,24,38,0.15)"/>
<rect x="420" y="196" width="28" height="28" fill="#d2ac74" stroke="rgba(18,24,38,0.15)"/>
<rect x="0" y="224" width="28" height="28" fill="#d2ac74" stroke="rgba(18,24,38,0.15)"/>
<rect x="28" y="224" width="28" height="28" fill="#d2ac74" stroke="rgba(18,24,38,0.15)"/>
<rect x="56" y="224" width="28" height="28" fill="#d2ac74" stroke="rgba(18,24,38,0.15)"/>
<rect x="84" y="224" width="28" height="28" fill="#a47c53" stroke="rgba(18,24,38,0.15)"/>
<rect x="112" y="224" width="28" height="28" fill="#a47c53" stroke="rgba(18,24,38,0.15)"/>
<rect x="140" y="224" width="28" height="28" fill="#a47c53" stroke="rgba(18,24,38,0.15)"/>
<rect x="168" y="224" width="28" height="28" fill="#d2ac74" stroke="rgba(18,24,38,0.15)"/>
<rect x="196" y="224" width="28" height="28" fill="#d2ac74" stroke="rgba(18,24,38,0.15)"/>
<rect x="224" y="224" width="28" height="28" fill="#d2ac74" stroke="rgba(18,24,38,0.15)"/>
<rect x="252" y="224" width="28" height="28" fill="#d2ac74" stroke="rgba(18,24,38,0.15)"/>
<rect x="280" y="224" width="28" height="28" fill="#a47c53" stroke="rgba(18,24,38,0.15)"/>
<rect x="308" y="224" width="28" height="28" fill="#a47c53" stroke="rgba(18,24,38,0.15)"/>
<rect x="336" y="224" width="28" height="28" fill="#a47c53" stroke="rgba(18,24,38,0.15)"/>
<rect x="364" y="224" width="28" height="28" fill="#d2ac74" stroke="rgba(18,24,38,0.15)"/>
<rect x="392" y="224" width="28" height="28" fill="#d2ac74" stroke="rgba(18,24,38,0.15)"/>
<rect x="420" y="224" width="28" height="28" fill="#d2ac74" stroke="rgba(18,24,38,0.15)"/>
<rect x="0" y="252" width="28" height="28" fill="#d2ac74" stroke="rgba(18,24,38,0.15)"/>
<rect x="28" y="252" width="28" height="28" fill="#d2ac74" stroke="rgba(18,24,38,0.15)"/>
<rect x="56" y="252" width="28" height="28" fill="#d2ac74" stroke="rgba(18,24,38,0.15)"/>
<rect x="84" y="252" width="28" height="28" fill="#a47c53" stroke="rgba(18,24,38,0.15)"/>
<rect x="112" y="252" width="28" height="28" fill="#a47c53" stroke="rgba(18,24,38,0.15)"/>
<rect x="140" y="252" width="28" height="28" fill="#a47c53" stroke="rgba(18,24,38,0.15)"/>
<rect x="168" y="252" width="28" height="28" fill="#a47c53" stroke="rgba(18,24,38,0.15)"/>
<rect x="196" y="252" width="28" height="28" fill="#a47c53" stroke="rgba(18,24,38,0.15)"/>
<rect x="224" y="252" width="28" height="28" fill="#a47c53" stroke="rgba(18,24,38,0.15)"/>
<rect x="252" y="252" width="28" height="28" fill="#a47c53" stroke="rgba(18,24,38,0.15)"/>
<rect x="280" y="252" width="28" height="28" fill="#a47c53" stroke="rgba(18,24,38,0.15)"/>
<rect x="308" y="252" width="28" height="28" fill="#a47c53" stroke="rgba(18,24,38,0.15)"/>
<rect x="336" y="252" width="28" height="28" fill="#a47c53" stroke="rgba(18,24,38,0.15)"/>
<rect x="364" y="252" width="28" height="28" fill="#d2ac74" stroke="rgba(18,24,38,0.15)"/>
<rect x="392" y="252" width="28" height="28" fill="#d2ac74" stroke="rgba(18,24,38,0.15)"/>
<rect x="420" y="252" width="28" height="28" fill="#d2ac74" stroke="rgba(18,24,38,0.15)"/>
<rect x="0" y="280" width="28" height="28" fill="#d2ac74" stroke="rgba(18,24,38,0.15)"/>
<rect x="28" y="280" width="28" height="28" fill="#d2ac74" stroke="rgba(18,24,38,0.15)"/>
<rect x="56" y="280" width="28" height="28" fill="#d2ac74" stroke="rgba(18,24,38,0.15)"/>
<rect x="84" y="280" width="28" height="28" fill="#a47c53" stroke="rgba(18,24,38,0.15)"/>
<rect x="112" y="280" width="28" height="28" fill="#a47c53" stroke="rgba(18,24,38,0.15)"/>
<rect x="140" y="280" width="28" height="28" fill="#a47c53" stroke="rgba(18,24,38,0.15)"/>
<rect x="168" y="280" width="28" height="28" fill="#a47c53" stroke="rgba(18,24,38,0.15)"/>
<rect x="196" y="280" width="28" height="28" fill="#a47c53" stroke="rgba(18,24,38,0.15)"/>
<rect x="224" y="280" width="28" height="28" fill="#a47c53" stroke="rgba(18,24,38,0.15)"/>
<rect x="252" y="280" width="28" height="28" fill="#a47c53" stroke="rgba(18,24,38,0.15)"/>
<rect x="280" y="280" width="28" height="28" fill="#a47c53" stroke="rgba(18,24,38,0.15)"/>
<rect x="308" y="280" width="28" height="28" fill="#a47c53" stroke="rgba(18,24,38,0.15)"/>
<rect x="336" y="280" width="28" height="28" fill="#a47c53" stroke="rgba(18,24,38,0.15)"/>
<rect x="364" y="280" width="28" height="28" fill="#d2ac74" stroke="rgba(18,24,38,0.15)"/>
<rect x="392" y="280" width="28" height="28" fill="#d2ac74" stroke="rgba(18,24,38,0.15)"/>
<rect x="420" y="280" width="28" height="28" fill="#d2ac74" stroke="rgba(18,24,38,0.15)"/>
<rect x="0" y="308" width="28" height="28" fill="#d2ac74" stroke="rgba(18,24,38,0.15)"/>
<rect x="28" y="308" width="28" height="28" fill="#d2ac74" stroke="rgba(18,24,38,0.15)"/>
<rect x="56" y="308" width="28" height="28" fill="#d2ac74" stroke="rgba(18,24,38,0.15)"/>
<rect x="84" y="308" width="28" height="28" fill="#d2ac74" stroke="rgba(18,24,38,0.15)"/>
<rect x="112" y="308" width="28" height="28" fill="#d2ac74" stroke="rgba(18,24,38,0.15)"/>
<rect x="140" y="308" width="28" height="28" fill="#d2ac74" stroke="rgba(18,24,38,0.15)"/>
<rect x="168" y="308" width="28" height="28" fill="#d2ac74" stroke="rgba(18,24,38,0.15)"/>
<rect x="196" y="308" width="28" height="28" fill="#d2ac74" stroke="rgba(18,24,38,0.15)"/>
<rect x="224" y="308" width="28" height="28" fill="#d2ac74" stroke="rgba(18,24,38,0.15)"/>
<rect x="252" y="308" width="28" height="28" fill="#d2ac74" stroke="rgba(18,24,38,0.15)"/>
<rect x="280" y="308" width="28" height="28" fill="#d2ac74" stroke="rgba(18,24,38,0.15)"/>
<rect x="308" y="308" width="28" height="28" fill="#d2ac74" stroke="rgba(18,24,38,0.15)"/>
<rect x="336" y="308" width="28" height="28" fill="#d2ac74" stroke="rgba(18,24,38,0.15)"/>
<rect x="364" y="308" width="28" height="28" fill="#d2ac74" stroke="rgba(18,24,38,0.15)"/>
<rect x="392" y="308" width="28" height="28" fill="#d2ac74" stroke="rgba(18,24,38,0.15)"/>
<rect x="420" y="308" width="28" height="28" fill="#d2ac74" stroke="rgba(18,24,38,0.15)"/>
<rect x="0" y="336" width="28" height="28" fill="#d2ac74" stroke="rgba(18,24,38,0.15)"/>
<rect x="28" y="336" width="28" height="28" fill="#d2ac74" stroke="rgba(18,24,38,0.15)"/>
<rect x="56" y="336" width="28" height="28" fill="#d2ac74" stroke="rgba(18,24,38,0.15)"/>
<rect x="84" y="336" width="28" height="28" fill="#a47c53" stroke="rgba(18,24,38,0.15)"/>
<rect x="112" y="336" width="28" height="28" fill="#a47c53" stroke="rgba(18,24,38,0.15)"/>
<rect x="140" y="336" width="28" height="28" fill="#d2ac74" stroke="rgba(18,24,38,0.15)"/>
<rect x="168" y="336" width="28" height="28" fill="#d2ac74" stroke="rgba(18,24,38,0.15)"/>
<rect x="196" y="336" width="28" height="28" fill="#d2ac74" stroke="rgba(18,24,38,0.15)"/>
<rect x="224" y="336" width="28" height="28" fill="#d2ac74" stroke="rgba(18,24,38,0.15)"/>
<rect x="252" y="336" width="28" height="28" fill="#d2ac74" stroke="rgba(18,24,38,0.15)"/>
<rect x="280" y="336" width="28" height="28" fill="#a47c53" stroke="rgba(18,24,38,0.15)"/>
<rect x="308" y="336" width="28" height="28" fill="#a47c53" stroke="rgba(18,24,38,0.15)"/>
<rect x="336" y="336" width="28" height="28" fill="#a47c53" stroke="rgba(18,24,38,0.15)"/>
<rect x="364" y="336" width="28" height="28" fill="#d2ac74" stroke="rgba(18,24,38,0.15)"/>
<rect x="392" y="336" width="28" height="28" fill="#d2ac74" stroke="rgba(18,24,38,0.15)"/>
<rect x="420" y="336" width="28" height="28" fill="#d2ac74" stroke="rgba(18,24,38,0.15)"/>
<rect x="0" y="364" width="28" height="28" fill="#d2ac74" stroke="rgba(18,24,38,0.15)"/>
<rect x="28" y="364" width="28" height="28" fill="#d2ac74" stroke="rgba(18,24,38,0.15)"/>
<rect x="56" y="364" width="28" height="28" fill="#d2ac74" stroke="rgba(18,24,38,0.15)"/>
<rect x="84" y="364" width="28" height="28" fill="#a47c53" stroke="rgba(18,24,38,0.15)"/>
<rect x="112" y="364" width="28" height="28" fill="#a47c53" stroke="rgba(18,24,38,0.15)"/>
<rect x="140" y="364" width="28" height="28" fill="#d2ac74" stroke="rgba(18,24,38,0.15)"/>
<rect x="168" y="364" width="28" height="28" fill="#d2ac74" stroke="rgba(18,24,38,0.15)"/>
<rect x="196" y="364" width="28" height="28" fill="#a47c53" stroke="rgba(18,24,38,0.15)"/>
<rect x="224" y="364" width="28" height="28" fill="#a47c53" stroke="rgba(18,24,38,0.15)"/>
<rect x="252" y="364" width="28" height="28" fill="#d2ac74" stroke="rgba(18,24,38,0.15)"/>
<rect x="280" y="364" width="28" height="28" fill="#d2ac74" stroke="rgba(18,24,38,0.15)"/>
<rect x="308" y="364" width="28" height="28" fill="#a47c53" stroke="rgba(18,24,38,0.15)"/>
<rect x="336" y="364" width="28" height="28" fill="#a47c53" stroke="rgba(18,24,38,0.15)"/>
<rect x="364" y="364" width="28" height="28" fill="#d2ac74" stroke="rgba(18,24,38,0.15)"/>
<rect x="392" y="364" width="28" height="28" fill="#d2ac74" stroke="rgba(18,24,38,0.15)"/>
<rect x="420" y="364" width="28" height="28" fill="#d2ac74" stroke="rgba(18,24,38,0.15)"/>
<rect x="0" y="392" width="28" height="28" fill="#d2ac74" stroke="rgba(18,24,38,0.15)"/>
<rect x="28" y="392" width="28" height="28" fill="#d2ac74" stroke="rgba(18,24,38,0.15)"/>
<rect x="56" y="392" width="28" height="28" fill="#d2ac74" stroke="rgba(18,24,38,0.15)"/>
<rect x="84" y="392" width="28" height="28" fill="#d2ac74" stroke="rgba(18,24,38,0.15)"/>
<rect x="112" y="392" width="28" height="28" fill="#d2ac74" stroke="rgba(18,24,38,0.15)"/>
<rect x="140" y="392" width="28" height="28" fill="#d2ac74" stroke="rgba(18,24,38,0.15)"/>
<rect x="168" y="392" width="28" height="28" fill="#d2ac74" stroke="rgba(18,24,38,0.15)"/>
<rect x="196" y="392" width="28" height="28" fill="#d2ac74" stroke="rgba(18,24,38,0.15)"/>
<rect x="224" y="392" width="28" height="28" fill="#d2ac74" stroke="rgba(18,24,38,0.15)"/>
<rect x="252" y="392" width="28" height="28" fill="#d2ac74" stroke="rgba(18,24,38,0.15)"/>
<rect x="280" y="392" width="28" height="28" fill="#d2ac74" stroke="rgba(18,24,38,0.15)"/>
<rect x="308" y="392" width="28" height="28" fill="#d2ac74" stroke="rgba(18,24,38,0.15)"/>
<rect x="336" y="392" width="28" height="28" fill="#d2ac74" stroke="rgba(18,24,38,0.15)"/>
<rect x="364" y="392" width="28" height="28" fill="#d2ac74" stroke="rgba(18,24,38,0.15)"/>
<rect x="392" y="392" width="28" height="28" fill="#d2ac74" stroke="rgba(18,24,38,0.15)"/>
<rect x="420" y="392" width="28" height="28" fill="#d2ac74" stroke="rgba(18,24,38,0.15)"/>
<rect x="0" y="420" width="28" height="28" fill="#d2ac74" stroke="rgba(18,24,38,0.15)"/>
<rect x="28" y="420" width="28" height="28" fill="#d2ac74" stroke="rgba(18,24,38,0.15)"/>
<rect x="56" y="420" width="28" height="28" fill="#d2ac74" stroke="rgba(18,24,38,0.15)"/>
<rect x="84" y="420" width="28" height="28" fill="#d2ac74" stroke="rgba(18,24,38,0.15)"/>
<rect x="112" y="420" width="28" height="28" fill="#d2ac74" stroke="rgba(18,24,38,0.15)"/>
<rect x="140" y="420" width="28" height="28" fill="#d2ac74" stroke="rgba(18,24,38,0.15)"/>
<rect x="168" y="420" width="28" height="28" fill="#d2ac74" stroke="rgba(18,24,38,0.15)"/>
<rect x="196" y="420" width="28" height="28" fill="#d2ac74" stroke="rgba(18,24,38,0.15)"/>
<rect x="224" y="420" width="28" height="28" fill="#d2ac74" stroke="rgba(18,24,38,0.15)"/>
<rect x="252" y="420" width="28" height="28" fill="#d2ac74" stroke="rgba(18,24,38,0.15)"/>
<rect x="280" y="420" width="28" height="28" fill="#d2ac74" stroke="rgba(18,24,38,0.15)"/>
<rect x="308" y="420" width="28" height="28" fill="#d2ac74" stroke="rgba(18,24,38,0.15)"/>
<rect x="336" y="420" width="28" height="28" fill="#d2ac74" stroke="rgba(18,24,38,0.15)"/>
<rect x="364" y="420" width="28" height="28" fill="#d2ac74" stroke="rgba(18,24,38,0.15)"/>
<rect x="392" y="420" width="28" height="28" fill="#d2ac74" stroke="rgba(18,24,38,0.15)"/>
<rect x="420" y="420" width="28" height="28" fill="#d2ac74" stroke="rgba(18,24,38,0.15)"/>
<rect x="1" y="29" width="110" height="110" fill="rgba(17,21,34,0.08)" stroke="#3b2012" stroke-width="2"/>
<rect x="169" y="29" width="110" height="110" fill="rgba(17,21,34,0.08)" stroke="#3b2012" stroke-width="2"/>
<rect x="309" y="29" width="110" height="110" fill="rgba(17,21,34,0.08)" stroke="#3b2012" stroke-width="2"/>
<rect x="197" y="197" width="54" height="54" fill="rgba(17,21,34,0.08)" stroke="#3b2012" stroke-width="2"/>
<rect x="1" y="281" width="110" height="110" fill="rgba(17,21,34,0.08)" stroke="#3b2012" stroke-width="2"/>
<rect x="309" y="281" width="110" height="110" fill="rgba(17,21,34,0.08)" stroke="#3b2012" stroke-width="2"/>
<rect x="170" y="254" width="108" height="80" rx="9" fill="rgba(214,226,255,0.08)" stroke="rgba(214,226,255,0.4)" stroke-width="2"/>
<circle cx="238" cy="294" r="4" fill="#101826"/>
<circle cx="238" cy="294" r="2.5" fill="#ffe6af"/>
<rect x="2" y="30" width="108" height="136" rx="9" fill="rgba(255,222,145,0.14)" stroke="rgba(255,214,118,0.92)" stroke-width="2"/>
<circle cx="42" cy="154" r="4" fill="#101826"/>
<circle cx="42" cy="154" r="2.5" fill="#ffe6af"/>
<rect x="25.80000000000004" y="30.80000000000004" width="66" height="22" rx="8" fill="rgba(16,24,38,0.92)" stroke="rgba(255,214,118,0.9)" stroke-width="1.5"/>
<text x="58.80000000000004" y="45.80000000000004" fill="#ffe6af" text-anchor="middle" font-size="12" font-weight="700">Guilde</text>
<rect x="170" y="30" width="108" height="136" rx="9" fill="rgba(255,222,145,0.14)" stroke="rgba(255,214,118,0.92)" stroke-width="2"/>
<circle cx="238" cy="154" r="4" fill="#101826"/>
<circle cx="238" cy="154" r="2.5" fill="#ffe6af"/>
<rect x="189.80000000000004" y="30.80000000000004" width="74" height="22" rx="8" fill="rgba(16,24,38,0.92)" stroke="rgba(255,214,118,0.9)" stroke-width="1.5"/>
<text x="226.80000000000004" y="45.80000000000004" fill="#ffe6af" text-anchor="middle" font-size="12" font-weight="700">Auberge</text>
<rect x="310" y="30" width="108" height="136" rx="9" fill="rgba(255,222,145,0.14)" stroke="rgba(255,214,118,0.92)" stroke-width="2"/>
<circle cx="350" cy="154" r="4" fill="#101826"/>
<circle cx="350" cy="154" r="2.5" fill="#ffe6af"/>
<rect x="323" y="30.80000000000004" width="82" height="22" rx="8" fill="rgba(16,24,38,0.92)" stroke="rgba(255,214,118,0.9)" stroke-width="1.5"/>
<text x="364" y="45.80000000000004" fill="#ffe6af" text-anchor="middle" font-size="12" font-weight="700">Boutique</text>
<rect x="2" y="282" width="136" height="108" rx="9" fill="rgba(214,226,255,0.08)" stroke="rgba(214,226,255,0.4)" stroke-width="2"/>
<circle cx="126" cy="350" r="4" fill="#101826"/>
<circle cx="126" cy="350" r="2.5" fill="#ffe6af"/>
<rect x="282" y="282" width="136" height="108" rx="9" fill="rgba(214,226,255,0.08)" stroke="rgba(214,226,255,0.4)" stroke-width="2"/>
<circle cx="294" cy="350" r="4" fill="#101826"/>
<circle cx="294" cy="350" r="2.5" fill="#ffe6af"/>
<circle cx="42" cy="182" r="4.5" fill="#8be0ff"/>
<circle cx="350" cy="182" r="4.5" fill="#8be0ff"/>
<circle cx="238" cy="182" r="4.5" fill="#8be0ff"/>
<circle cx="154" cy="322" r="4.5" fill="#8be0ff"/>
<circle cx="266" cy="378" r="4.5" fill="#8be0ff"/>
<circle cx="154" cy="210" r="4.5" fill="#8be0ff"/>
<circle cx="266" cy="322" r="4.5" fill="#8be0ff"/>
<circle cx="238" cy="378" r="4.5" fill="#8be0ff"/>
<text x="10" y="22" fill="#101826" font-size="18" font-weight="700">Village Canonique</text>
</svg>